<svg xmlns="http://www.w3.org/2000/svg" xmlns:xlink="http://www.w3.org/1999/xlink" version="1.1" id="Layer_1" x="0px" y="0px" width="98.512px" height="94.608px" viewBox="0 0 98.512 94.608" enable-background="new 0 0 98.512 94.608" xml:space="preserve">
<polygon fill="#333333" points="97.044,91.214 97.044,93.141 94.609,93.141 94.609,1.188 78.253,1.188 78.253,93.141 74.601,93.141 74.601,91.214   73.133,91.214 73.133,93.141 70.591,93.141 70.591,40.502 54.237,40.502 54.237,93.141 50.69,93.141 50.69,91.214 49.223,91.214   49.223,93.141 46.574,93.141 46.574,20.611 30.219,20.611 30.219,93.141 26.778,93.141 26.778,91.214 25.31,91.214 25.31,93.141   22.557,93.141 22.557,61.864 6.203,61.864 6.203,93.141 1.467,93.141 1.467,83.493 3.696,83.493 3.696,82.024 1.467,82.024   1.467,69.822 3.696,69.822 3.696,68.355 1.467,68.355 1.467,56.151 3.696,56.151 3.696,54.684 1.467,54.684 1.467,42.48   3.696,42.48 3.696,41.013 1.467,41.013 1.467,28.809 3.696,28.809 3.696,27.341 1.467,27.341 1.467,15.139 3.696,15.139   3.696,13.671 1.467,13.671 1.467,1.468 3.696,1.468 3.696,0 1.467,0 0.574,0 0.525,0 0,0 0,93.141 0,94.608 1.467,94.608   94.198,94.608 94.263,94.608 94.609,94.608 98.512,94.608 98.512,94.384 98.512,94.335 98.512,93.141 98.512,91.214 "/>
</svg>
